<svg xmlns="http://www.w3.org/2000/svg" xmlns:xlink="http://www.w3.org/1999/xlink" version="1.1" x="0px" y="0px" viewBox="0 0 1000 1000" style="enable-background:new 0 0 1000 1000;" xml:space="preserve">
<g id="background">
	
		<rect x="0" y="0" transform="matrix(-1.836970e-16 1 -1 -1.836970e-16 1000 5.684342e-13)" style="fill:#fafafa;" width="1000" height="1000"/>
</g>
<g id="object">
	<g>
		<g>
			<g>
				<path d="M534.308,658.376c-43.298,0-89.561-12.878-130.329-39.13c-49.726-32.021-82.749-78.274-90.603-126.898      c-5.826-36.066,2.695-69.52,24.641-96.746c52.953-65.698,168.694-72.358,258.003-14.847      c49.726,32.021,82.749,78.273,90.604,126.897c5.825,36.066-2.695,69.521-24.642,96.747      C633.201,640.106,585.86,658.376,534.308,658.376z M465.67,343.036c-51.125,0-98.025,18.087-126.54,53.463      c-21.683,26.901-30.1,59.966-24.342,95.621c7.789,48.225,40.58,94.122,89.965,125.924      c88.713,57.127,203.606,50.601,256.117-14.542c21.683-26.902,30.102-59.967,24.342-95.622      c-7.789-48.224-40.58-94.121-89.965-125.922C554.708,355.852,508.692,343.036,465.67,343.036z" fill="#ffffff"/>
			</g>
		</g>
		<g>
			<g>
				<path d="M520.042,666.36c-30.164,0-61.506-6.19-91.577-19.25c-53.083-23.053-93.767-63.973-111.622-112.265      c-14.088-38.102-12.599-78.092,4.19-112.605c39.455-81.093,151.831-112.204,250.502-69.351      c53.083,23.053,93.768,63.973,111.623,112.264c14.088,38.103,12.598,78.093-4.191,112.606      C651.535,634.14,588.857,666.36,520.042,666.36z M321.705,422.567l0.671,0.326c-16.611,34.143-18.079,73.718-4.134,111.436      c17.715,47.912,58.106,88.521,110.817,111.414c97.951,42.54,209.457,11.75,248.566-68.636      c16.612-34.143,18.08-73.718,4.135-111.436c-17.715-47.913-58.106-88.522-110.818-111.414      c-97.949-42.538-209.458-11.75-248.566,68.636L321.705,422.567z" fill="#ffffff"/>
			</g>
		</g>
		<g>
			<g>
				<path d="M508.328,677.793c-16.594,0.001-33.531-1.947-50.5-6.027c-53.836-12.947-100.335-46.025-127.576-90.755      c-23.872-39.198-31.259-84.243-20.8-126.837l0.754,0.185l-0.754-0.185c23.254-94.71,127.656-151.207,232.721-125.939      c53.836,12.947,100.335,46.025,127.576,90.756c23.872,39.198,31.258,84.243,20.799,126.837      C671.049,625.241,594.486,677.787,508.328,677.793z M491.668,323.761c-85.466,0-161.38,52.069-180.707,130.783      c-10.358,42.189-3.036,86.815,20.619,125.658c27.027,44.379,73.176,77.202,126.613,90.052      c104.229,25.064,207.795-30.916,230.847-124.798c10.359-42.189,3.037-86.815-20.618-125.658      c-27.027-44.379-73.175-77.202-126.613-90.053C524.969,325.696,508.137,323.761,491.668,323.761z" fill="#ffffff"/>
			</g>
		</g>
		<g>
			<g>
				<path d="M501.192,692.219c-3.266,0-6.533-0.078-9.819-0.235c-107.978-5.169-191.954-95.496-187.198-201.355      c2.271-50.559,24.294-97.333,62.01-131.706c38.808-35.366,89.402-53.441,142.441-50.906      c107.978,5.169,191.955,95.496,187.199,201.355c-2.271,50.559-24.294,97.333-62.011,131.706      C597.411,674.253,550.633,692.219,501.192,692.219z M498.811,309.402c-49.04,0-95.428,17.815-131.533,50.719      c-37.396,34.08-59.231,80.454-61.484,130.58c-4.716,104.969,78.569,194.537,185.657,199.664      c52.604,2.509,102.784-15.41,141.272-50.485c37.397-34.08,59.232-80.455,61.485-130.581      c4.716-104.969-78.57-194.537-185.658-199.663C505.294,309.48,502.047,309.402,498.811,309.402z" fill="#ffffff"/>
			</g>
		</g>
		<g>
			<g>
				<path d="M499.191,708.877c-39.809,0-78.654-12.899-111.729-37.494c-44.723-33.258-73.673-83.256-81.513-140.782      c-15.527-113.909,58.884-220.315,165.872-237.195c49.663-7.837,99.64,4.668,140.715,35.213      c44.724,33.258,73.674,83.256,81.516,140.783c15.527,113.909-58.884,220.315-165.872,237.195      C518.506,708.122,508.82,708.877,499.191,708.877z M500.805,292.814c-9.542,0-19.135,0.747-28.72,2.26      C365.997,311.812,292.22,417.366,307.623,530.372c7.78,57.073,36.491,106.67,80.848,139.655      c40.706,30.271,90.227,42.665,139.445,34.9c106.088-16.739,179.865-122.293,164.462-235.298      c-7.78-57.073-36.493-106.67-80.85-139.655C578.749,305.598,540.253,292.814,500.805,292.814z" fill="#ffffff"/>
			</g>
		</g>
		<g>
			<g>
				<path d="M504.075,726.622c-25.77,0-51.591-5.857-75.979-17.515c-52.453-25.073-93.561-74.731-112.783-136.243      c-36.965-118.28,15.777-247.212,117.571-287.41c45.073-17.8,94.444-15.868,139.021,5.44      c52.453,25.073,93.561,74.732,112.783,136.243c36.964,118.281-15.779,247.212-117.572,287.41      C546.703,722.608,525.407,726.622,504.075,726.622z M495.923,275.142c-21.115,0-42.188,3.972-62.392,11.95      C332.577,326.959,280.298,454.92,316.993,572.338c19.079,61.046,59.851,110.317,111.863,135.179      c44.13,21.094,93,23.009,137.613,5.39c100.954-39.866,153.232-167.827,116.539-285.246      c-19.078-61.046-59.851-110.317-111.863-135.179C547.001,280.942,521.432,275.142,495.923,275.142z" fill="#ffffff"/>
			</g>
		</g>
		<g>
			<g>
				<path d="M514.404,744.317c-13.662,0-27.462-1.744-41.186-5.273c-57.967-14.907-109.234-59.753-140.656-123.04      c-58.835-118.498-31.663-266.961,60.57-330.948c39.649-27.507,87.114-36.066,133.653-24.098      c57.965,14.907,109.233,59.753,140.655,123.041c58.835,118.497,31.664,266.96-60.569,330.948      C578.915,734.341,547.067,744.317,514.404,744.317z M334.205,615.186c31.185,62.809,82.019,107.305,139.468,122.078      c46.019,11.835,92.948,3.37,132.15-23.828c91.513-63.49,118.415-210.909,59.971-328.622      c-31.185-62.809-82.019-107.305-139.468-122.078c-46.014-11.835-92.947-3.371-132.149,23.828      C302.664,350.052,275.761,497.472,334.205,615.186z" fill="#ffffff"/>
			</g>
		</g>
		<g>
			<g>
				<path d="M529.478,760.901c-3.05,0-6.112-0.09-9.19-0.271c-60.12-3.539-119.374-40.785-162.57-102.185      c-80.339-114.198-81.996-278.191-3.693-365.566c33.435-37.309,78.065-56.314,125.689-53.509      c60.119,3.54,119.373,40.785,162.569,102.185c80.339,114.199,81.996,278.192,3.692,365.566      C614.702,742.019,573.625,760.901,529.478,760.901z M470.53,241.014c-43.6,0-84.176,18.658-115.08,53.142      c-77.742,86.75-76.022,249.675,3.835,363.187c42.858,60.921,101.583,97.871,161.116,101.376      c47.014,2.764,91.111-16.01,124.149-52.875c77.742-86.75,76.023-249.675-3.834-363.187      c-42.857-60.92-101.582-97.87-161.115-101.375C476.564,241.103,473.54,241.014,470.53,241.014z" fill="#ffffff"/>
			</g>
		</g>
		<g>
			<g>
				<path d="M547.706,775.413c-53.449,0.003-109.72-27.288-157.199-76.905c-100.631-105.161-133.546-279.745-73.374-389.176      c26.117-47.497,67.065-77.138,115.305-83.46c59.121-7.751,123.654,19.815,177.055,75.62      c100.63,105.161,133.545,279.744,73.374,389.176c-26.117,47.497-67.068,77.138-115.306,83.46      C561.004,774.987,554.374,775.412,547.706,775.413z M452.297,226.583c-6.586,0-13.124,0.42-19.599,1.268      c-47.592,6.238-88.012,35.516-113.815,82.443C259.1,419.017,291.877,592.55,391.95,697.128      c52.956,55.341,116.871,82.683,175.352,75.021c47.592-6.238,88.014-35.516,113.816-82.443      c59.782-108.723,27.004-282.256-73.067-386.833C560.957,253.658,505.195,226.583,452.297,226.583z" fill="#ffffff"/>
			</g>
		</g>
		<g>
			<g>
				<path d="M567.836,787.134c-44.426,0-92.529-18.122-137.497-52.68c-118.829-91.321-184.447-270.729-146.274-399.929      c17.164-58.091,53.325-98.76,101.823-114.517c55.622-18.069,122.604-1.471,183.776,45.539      c118.829,91.321,184.446,270.729,146.273,399.929c-17.163,58.09-53.324,98.76-101.822,114.516      C599.381,784.779,583.844,787.134,567.836,787.134z M432.171,214.947c-15.797,0-31.113,2.32-45.641,7.04      c-47.826,15.538-83.507,55.714-100.47,113.127c-37.95,128.445,27.342,306.848,145.547,397.689      c60.619,46.587,126.905,63.066,181.864,45.21c47.826-15.538,83.506-55.714,100.469-113.126      c37.951-128.445-27.341-306.848-145.546-397.689C523.799,232.925,476.133,214.947,432.171,214.947z" fill="#ffffff"/>
			</g>
		</g>
		<g>
			<g>
				<path d="M587.442,795.945c-34.893,0.001-72.692-10.522-111.14-31.398c-134.063-72.789-232.705-250.573-219.889-396.309      c6.041-68.707,35.894-120.791,84.059-146.656c51.12-27.452,116.19-22.526,183.228,13.871      c134.063,72.788,232.704,250.573,219.888,396.31c-6.042,68.707-35.894,120.791-84.059,146.656      C637.728,790.126,613.387,795.945,587.442,795.945z M412.563,206.228c-25.598,0-49.585,5.731-71.064,17.266      c-47.498,25.508-76.948,76.98-82.925,144.934c-12.747,144.955,85.389,321.799,218.763,394.213      c66.375,36.037,130.714,40.961,181.165,13.866c47.499-25.508,76.948-76.98,82.925-144.934      c12.747-144.956-85.389-321.799-218.762-394.214C484.547,216.664,447.092,206.228,412.563,206.228z" fill="#ffffff"/>
			</g>
		</g>
		<g>
			<g>
				<path d="M605.649,801.185c-24.667,0.001-51.058-4.659-78.475-14.055c-145.496-49.862-276.25-219.078-291.475-377.212      c-7.564-78.565,14.023-142.164,60.782-179.082c44.652-35.254,107.278-41.635,176.344-17.965      c145.495,49.862,276.25,219.078,291.476,377.212c7.563,78.565-14.022,142.164-60.782,179.081      C676.592,790.423,643.119,801.182,605.649,801.185z M394.363,201.081c-36.976,0-69.959,10.592-96.48,31.531      c-46.136,36.424-67.419,99.316-59.931,177.089c15.147,157.333,145.22,325.687,289.955,375.288      c68.313,23.411,130.182,17.16,174.21-17.6c46.135-36.424,67.419-99.315,59.931-177.089      c-15.148-157.334-145.221-325.688-289.956-375.289C444.929,205.701,418.773,201.081,394.363,201.081z" fill="#ffffff"/>
			</g>
		</g>
		<g>
			<g>
				<path d="M618.946,803.586c-12.097,0-24.617-0.963-37.504-2.911C429.084,777.646,268.429,624.219,223.314,458.66      c-23.247-85.31-11.932-161.926,31.046-210.202c37.419-42.033,95.736-59.482,164.199-49.133      c152.357,23.03,313.012,176.457,358.128,342.015c23.247,85.31,11.932,161.925-31.045,210.202      C715.267,785.663,671.115,803.586,618.946,803.586z M381.071,198.774c-51.499,0-95.033,17.646-124.95,51.252      c-42.437,47.67-53.565,123.488-30.531,208.013c44.892,164.742,204.685,317.401,356.204,340.304      c67.654,10.224,125.215-6.953,162.086-48.37c42.437-47.67,53.565-123.488,30.53-208.013      c-44.893-164.741-204.684-317.401-356.203-340.304C405.447,199.728,393.041,198.774,381.071,198.774z" fill="#ffffff"/>
			</g>
		</g>
		<g>
			<g>
				<path d="M625.333,804.144c-151.58,0-330.966-127.949-404.886-290.927c-40.864-90.097-42.881-176.73-5.534-237.686      c29.533-48.203,82.01-76.402,147.766-79.404c153.956-7.03,340.996,123.36,416.875,290.656      c40.864,90.096,42.882,176.73,5.536,237.686c-29.533,48.203-82.01,76.403-147.766,79.404      C633.348,804.055,629.349,804.144,625.333,804.144z M637.212,801.417l0.056,1.228L637.212,801.417      c64.915-2.963,116.687-30.747,145.78-78.232c36.914-60.249,34.844-146.044-5.678-235.385      c-75.499-166.461-261.417-296.202-414.524-289.215c-64.915,2.963-116.687,30.746-145.781,78.232      c-36.913,60.249-34.844,146.044,5.678,235.386C298.187,678.664,484.143,808.413,637.212,801.417z" fill="#ffffff"/>
			</g>
		</g>
		<g>
			<g>
				<path d="M623.397,804.269c-139.573,0-304.591-93.409-395.363-232.26c-59.201-90.557-76.883-184.797-48.512-258.555      c21.149-54.985,65.294-92.726,127.659-109.142c149.862-39.454,358.363,60.892,464.784,223.678      c59.201,90.557,76.884,184.797,48.513,258.555c-21.15,54.984-65.294,92.726-127.659,109.142      C670.784,801.488,647.456,804.269,623.397,804.269z M376.713,198.279c-23.884,0-47.007,2.755-68.88,8.513      c-61.534,16.198-105.076,53.4-125.917,107.583c-28.072,72.98-10.479,166.373,48.264,256.232      c105.862,161.932,313.104,261.79,461.987,222.603c61.534-16.198,105.077-53.4,125.919-107.584      c28.072-72.98,10.479-166.372-48.265-256.232C679.511,291.25,515.409,198.279,376.713,198.279z" fill="#ffffff"/>
			</g>
		</g>
		<g>
			<g>
				<path d="M611.759,805.773c-124.602,0-267.645-63.625-365.065-172.615c-76.679-85.785-111.777-183.99-96.294-269.434      c11.099-61.243,47.006-109.363,103.84-139.158c139.629-73.199,363.512-9.375,499.066,142.275      c76.679,85.785,111.777,183.991,96.293,269.435c-11.098,61.243-47.006,109.362-103.84,139.156l-0.62-1.184l0.62,1.184      C706.48,796.025,660.531,805.773,611.759,805.773z M388.331,196.859c-48.372,0-93.906,9.66-132.849,30.075      c-56.078,29.398-91.504,76.864-102.451,137.266c-15.335,84.628,19.53,182.01,95.657,267.176      c96.92,108.429,239.176,171.755,362.981,171.763c48.371,0.003,93.906-9.659,132.849-30.075      c56.078-29.398,91.505-76.863,102.451-137.265c15.336-84.628-19.529-182.011-95.656-267.178      C654.394,260.194,512.136,196.859,388.331,196.859z" fill="#ffffff"/>
			</g>
		</g>
		<g>
			<g>
				<path d="M590.101,810.891c-105.044,0-220.691-39.83-313.423-116.36c-91.508-75.519-144.691-172.882-145.909-267.123      c-0.877-67.734,25.18-126.602,75.353-170.238c123.143-107.1,355.157-85.434,517.201,48.298      c91.508,75.52,144.691,172.883,145.909,267.124c0.876,67.734-25.18,126.601-75.353,170.237      C741.207,788.639,668.615,810.891,590.101,810.891z M409.905,191.849c-77.845,0-149.77,22.038-201.954,67.425      c-49.535,43.082-75.261,101.209-74.395,168.099c1.208,93.42,54.02,190.012,144.896,265.01      c161.038,132.902,391.438,154.589,513.6,48.344l0.914,1.051l-0.914-1.051c49.535-43.082,75.26-101.209,74.395-168.098      c-1.208-93.42-54.021-190.013-144.897-265.011C629.304,231.489,514.287,191.849,409.905,191.849z" fill="#ffffff"/>
			</g>
		</g>
		<g>
			<g>
				<path d="M561.932,821.738c-80.899,0-166.662-22.171-244.107-67.938c-102.114-60.346-172.512-151.285-193.142-249.5      c-15.312-72.898-0.957-144.764,40.421-202.361c100.471-139.851,332.425-164.857,517.07-55.74      c102.114,60.346,172.512,151.286,193.142,249.501c15.312,72.897,0.957,144.763-40.421,202.359l-1.18-0.848l1.18,0.848      C776.565,779.253,673.911,821.738,561.932,821.738z M438.014,181.137c-111.048,0-212.764,42.063-270.549,122.498      c-41.49,57.751-55.3,126.933-39.938,200.067c20.463,97.419,90.363,187.664,191.777,247.596      c77.006,45.508,162.295,67.56,242.683,67.564c111.048,0.005,212.764-42.063,270.548-122.498      c41.49-57.751,55.3-126.932,39.938-200.067c-20.463-97.419-90.362-187.664-191.777-247.596      C603.691,203.193,518.402,181.137,438.014,181.137z" fill="#ffffff"/>
			</g>
		</g>
		<g>
			<g>
				<path d="M533.942,839.502c-54.077,0-109.994-9.956-164.402-30.993C261.952,766.91,176.919,688.007,136.249,592.031      c-32.843-77.506-33.858-160.549-2.856-233.831c71.948-170.079,294.927-244.867,497.068-166.709      c107.589,41.599,192.621,120.502,233.292,216.478c32.844,77.506,33.859,160.549,2.857,233.832      C814.026,766.1,680.771,839.502,533.942,839.502z M466.02,163.518c-145.634,0-277.738,72.703-329.839,195.862      c-30.679,72.521-29.664,154.725,2.857,231.469c40.353,95.225,124.765,173.529,231.595,214.835      c200.626,77.573,421.868,3.524,493.187-165.064c30.678-72.521,29.663-154.725-2.858-231.47      c-40.353-95.225-124.765-173.529-231.595-214.835C575.304,173.413,519.74,163.518,466.02,163.518z" fill="#ffffff"/>
			</g>
		</g>
		<g>
			<g>
				<path d="M512.333,864.061c-26.831,0-54.108-2.561-81.564-7.899c-103.347-20.088-193.315-76.007-253.333-157.456      c-60.048-81.488-82.93-178.772-64.433-273.931c38.174-196.389,242.834-322.417,456.228-280.938      c213.392,41.479,355.941,234.998,317.767,431.387l-1.55-0.301l1.55,0.301C853.736,746.345,694.036,864.061,512.333,864.061z       M487.665,139.097c-180.243,0-338.59,116.65-371.563,286.281c-18.326,94.282,4.359,190.687,63.876,271.455      c59.546,80.809,148.827,136.292,251.393,156.23c27.236,5.294,54.349,7.839,80.964,7.84      c180.244,0.01,338.591-116.649,371.564-286.28c37.842-194.679-103.588-386.538-315.27-427.685      C541.393,141.644,514.28,139.097,487.665,139.097z" fill="#ffffff"/>
			</g>
		</g>
		<g>
			<g>
				<path d="M500,894.309c-217.422,0-394.309-176.886-394.309-394.309S282.578,105.691,500,105.691S894.309,282.577,894.309,500      S717.423,894.309,500,894.309z M500,108.984c-215.607,0-391.017,175.409-391.017,391.016S284.393,891.016,500,891.016      S891.016,715.607,891.016,500S715.608,108.984,500,108.984z" fill="#ffffff"/>
			</g>
		</g>
	</g>
</g>
</svg>