<?xml version="1.0" encoding="UTF-8"?><svg width="60" height="60" fill="none" xmlns="http://www.w3.org/2000/svg"><path fill="#fff" d="M0 0h60v60H0z"/><path d="M0 0h60v60H0V0Z" fill="url(#a)"/><path d="M29.17 15.92c1.6-7.62 2.39-11.44 5.14-13.68C37.07 0 40.97 0 48.77 0H60v60H47.05c-12.5 0-18.76 0-22.07-4.06-3.3-4.06-2.02-10.18.53-22.43l3.66-17.59Z" fill="url(#b)"/><path d="M12.45 39.75a3.77 3.77 0 0 0 4.38 3.2 3.8 3.8 0 0 0 3.34-4.31 3.8 3.8 0 0 0-4.42-3.14c-2.1.3-3.6 2.11-3.3 4.25Zm3.67-25.65c-.11-1.71-1.95-2.77-3.77-2.5-1.74.25-3.24 1.83-2.92 3.47l3.11 16.48c.23 1.28 1.59 2.13 2.97 1.93 1.42-.2 2.43-1.4 2.3-2.7l-1.7-16.68ZM35.1 41.98a3.77 3.77 0 0 0 2.83 4.6 3.8 3.8 0 0 0 4.72-2.72c.53-2.1-.84-4.06-2.9-4.57a3.76 3.76 0 0 0-4.66 2.69Zm2.49-22.5c-.92 1.26-1.01 3.32.35 4.36 1.37 1.04 3.77.9 4.6-.39a3.04 3.04 0 0 1 3.5-1.35c1.83.46 2.78 2.04 2.46 3.35-.24.96-.85 1.74-2.56 2.06l-1.6.25a7.05 7.05 0 0 0-6.26 5.4c-.62 2.49.5 3.75 2.12 4.15 1.7.42 3.32-.47 3.83-1.97.37-1.12 1.3-1.49 2.66-1.52 3.67-.2 6.86-2.56 7.91-6.8 1.31-5.25-1.63-9.46-7.1-10.82-4.15-1.04-7.75.2-9.91 3.28Z" fill="#fff"/><defs><linearGradient id="a" x1="16.36" y1="9" x2="43.5" y2="27.5" gradientUnits="userSpaceOnUse"><stop stop-color="#00C2FF"/><stop offset="1" stop-color="#0075FF"/></linearGradient><linearGradient id="b" x1="55" y1="6.5" x2="19.47" y2="29.12" gradientUnits="userSpaceOnUse"><stop stop-color="#FF6C2E"/><stop offset="1" stop-color="#F00C65"/></linearGradient></defs></svg>
